<?xml version="1.0" encoding="utf-8"?>
<!-- Generator: Adobe Illustrator 18.0.0, SVG Export Plug-In . SVG Version: 6.00 Build 0)  -->
<!DOCTYPE svg PUBLIC "-//W3C//DTD SVG 1.1//EN" "http://www.w3.org/Graphics/SVG/1.1/DTD/svg11.dtd">
<svg version="1.1" id="Layer_1" xmlns="http://www.w3.org/2000/svg" xmlns:xlink="http://www.w3.org/1999/xlink" x="0px" y="0px"
	 viewBox="0 0 640 640" enable-background="new 0 0 640 640" xml:space="preserve">
<polygon fill="#AC30C1" points="355.7,211.7 375.8,195.9 368.5,155.4 361.4,190.8 341.3,205.9 320.4,201.8 298.9,206 278.6,190.8 
	271.5,155.4 264.2,195.9 284.7,212 258.3,239.2 242.3,228.5 238.3,168.9 226.1,237.1 246.7,266.2 233.7,316.4 259.2,321.2 
	237.4,429.6 253.1,432.7 274.9,324.2 293,327.6 286.6,484 302.6,484.6 308.9,330.6 320.4,332.8 331.1,330.8 337.4,484.6 353.4,484 
	347,327.8 365.1,324.3 386.9,432.7 402.6,429.6 380.9,321.4 407,316.4 393.8,265.5 413.9,237.1 401.7,168.9 397.7,228.5 
	382.1,238.9 355.9,211.8 "/>
</svg>
