<?xml version="1.0" encoding="utf-8"?>
<!-- Generator: Adobe Illustrator 18.1.0, SVG Export Plug-In . SVG Version: 6.00 Build 0)  -->
<!DOCTYPE svg PUBLIC "-//W3C//DTD SVG 1.1//EN" "http://www.w3.org/Graphics/SVG/1.1/DTD/svg11.dtd">
<svg version="1.1" id="Layer_1" xmlns="http://www.w3.org/2000/svg" xmlns:xlink="http://www.w3.org/1999/xlink" x="0px" y="0px"
	 viewBox="0 0 640 640" enable-background="new 0 0 640 640" xml:space="preserve">
<path d="M373.9,249.2l92.1-57.6l90.7,122.6l-0.1-60.2L454.9,138.8l-93.5,64.4l-6.6-15.6l-10.5-10.8l-11.5-5.9l-13.8-2.2l-15.7,2.9
	l-11.9,7l-8.8,10l-6,14.9l-93.8-64.7L81,254l-0.1,60.2l90.7-122.6l92.1,57.6l-100.1-1.9l-72,107.3l26,68.7L169,290l83.3-3.3
	l-65.9,34.7l-36.7,123.3l33.3,54l24.3-152.8l45-19.8l-20.6,46.7l27.3,44.6l35,11.3l-32.9-52.2l33.9-53.9l24-6.5l0,0
	c0,0,23.8,6.5,23.8,6.5l33.7,53.9l-32.9,52.2l35-11.3l27.3-44.6L385.3,326l45,19.8l24.3,152.8l33.3-54l-36.7-123.3l-65.9-34.7
	l83.3,3.3l51.3,133.3l26-68.7l-72-107.3L373.9,249.2z"/>
</svg>
