<?xml version="1.0" encoding="utf-8"?>
<!-- Generator: Adobe Illustrator 18.0.0, SVG Export Plug-In . SVG Version: 6.00 Build 0)  -->
<!DOCTYPE svg PUBLIC "-//W3C//DTD SVG 1.1//EN" "http://www.w3.org/Graphics/SVG/1.1/DTD/svg11.dtd">
<svg version="1.1" id="Layer_1" xmlns="http://www.w3.org/2000/svg" xmlns:xlink="http://www.w3.org/1999/xlink" x="0px" y="0px"
	 viewBox="0 0 640 640" enable-background="new 0 0 640 640" xml:space="preserve">
<polygon fill="#AC30C1" points="355.7,211.7 375.8,195.9 368.5,155.4 361.4,190.8 341.3,205.9 320.4,201.8 298.9,206 278.6,190.8 
	271.5,155.4 264.2,195.9 284.7,212 258.3,239.2 242.3,228.5 238.3,168.9 226.1,237.1 246.7,266.2 233.7,316.4 259.2,321.2 
	257.1,331.3 254.9,342.3 252.8,352.9 250.5,364.5 248.2,375.7 246.1,386.2 243.8,397.7 241.3,410.3 239.5,419.3 237.4,429.6 
	253.1,432.7 254.9,423.7 256.9,414.1 259.3,401.8 261.6,390.2 263.7,380.1 266.1,367.8 268.3,356.9 270.6,345.6 272.7,335.1 
	274.9,324.2 293,327.6 292.6,336.5 292.2,348 291.7,359.6 291.2,371.5 290.7,382.5 290.3,393.6 289.8,405.1 289.5,414.1 289,425.6 
	288.5,437 288.1,448.5 287.6,459.5 287.1,471.5 286.6,484 302.6,484.6 303.1,473.5 303.6,461.5 304.1,448.5 304.5,438.5 305,425.1 
	305.4,416.1 305.9,405 306.2,395.5 306.6,386 307.1,373 307.6,361 308.2,347.5 308.5,338.5 308.9,330.6 331.1,330.8 331.4,336.5 
	331.7,344 332,353 332.5,364.5 333,376 333.4,387.5 333.9,398.5 334.4,410.5 334.9,422.4 335.4,437 336,450 336.4,460 336.8,471 
	337.4,484.6 353.4,484 352.8,471 352.3,457.5 351.9,448 351.5,437.5 350.9,423 350.4,410.5 349.8,396.5 349.4,385.5 348.9,374.4 
	348.5,363.4 348,352 347.6,343 347.3,334 347,327.8 365.1,324.3 366.6,331.7 368.2,339.6 370.2,349.5 371.9,357.8 373.6,366.8 
	375.4,375.4 377.1,384 379,393.5 381.2,404.6 383.1,414 384.9,422.8 386.9,432.7 402.6,429.6 400.6,419.6 399.1,412.5 397.1,402.5 
	394.7,390.2 393.1,382.6 391.4,374 389.6,365 387.6,355.1 386,347.2 384.1,337.7 382.7,330.6 380.9,321.4 407,316.4 393.8,265.5 
	413.9,237.1 401.7,168.9 397.7,228.5 382.1,238.9 355.9,211.8 "/>
</svg>
